<?xml version="1.0" standalone="no"?>
<!DOCTYPE svg PUBLIC "-//W3C//DTD SVG 20010904//EN" "http://www.w3.org/TR/2001/REC-SVG-20010904/DTD/svg10.dtd">
<svg version="1.0" xmlns="http://www.w3.org/2000/svg" width="700.000000pt" height="700.000000pt" viewBox="0 0 700.000000 700.000000" preserveAspectRatio="xMidYMid meet">
    <g transform="translate(0.000000,700.000000) scale(0.100000,-0.100000)" fill="#000000" stroke="none">
        <path d="M3229 6990 c-1081 -91 -2030 -642 -2629 -1526 -310 -457 -492 -936
-577 -1519 -25 -173 -25 -718 0 -890 88 -598 282 -1098 610 -1567 195 -280
477 -572 752 -779 730 -550 1649 -795 2546 -679 953 122 1791 610 2364 1375
141 188 221 320 335 550 180 365 276 679 335 1096 25 176 31 606 11 797 -62
585 -244 1096 -563 1579 -516 784 -1313 1319 -2245 1507 -252 51 -687 77 -939
56z m489 -1461 c696 -76 1308 -512 1608 -1144 302 -636 247 -1396 -142 -1976
-61 -92 -203 -269 -238 -299 -16 -12 -35 5 -192 161 -96 95 -174 179 -174 185
0 5 14 23 31 40 72 68 176 219 244 354 285 567 172 1274 -276 1727 -242 245
-510 383 -859 444 -107 19 -364 16 -477 -5 -330 -60 -595 -199 -825 -433 -129
-130 -202 -232 -284 -395 -87 -174 -154 -433 -154 -599 l0 -69 -255 0 -255 0
6 93 c31 526 236 982 605 1344 171 168 322 275 534 379 201 98 436 168 651
192 113 13 339 14 452 1z m-1978 -264 l174 -174 -55 -58 c-255 -271 -444 -619
-533 -984 -45 -186 -60 -318 -60 -529 0 -222 16 -347 69 -555 90 -351 268
-679 511 -943 l67 -74 -177 -176 -176 -177 -50 55 c-397 437 -628 918 -717
1497 -27 171 -24 594 5 778 87 552 309 1018 690 1443 36 39 68 72 71 72 4 0
85 -79 181 -175z m3756 108 c389 -435 612 -908 701 -1480 27 -171 24 -594 -5
-778 -87 -557 -319 -1036 -706 -1460 l-55 -60 -177 177 -177 176 68 74 c296
318 492 733 561 1188 24 157 24 463 0 620 -69 455 -264 870 -560 1187 -43 46
-65 77 -60 85 14 24 329 337 339 338 6 0 38 -30 71 -67z m-2006 -797 l0 -243
-72 -6 c-103 -8 -179 -30 -283 -82 -161 -79 -288 -204 -365 -359 -183 -371
-67 -814 274 -1041 107 -71 213 -112 341 -133 l105 -16 0 -244 0 -243 -77 7
c-120 9 -267 42 -373 81 -419 155 -729 517 -826 963 -26 120 -26 400 0 520 84
388 332 717 673 893 168 87 379 144 541 146 l62 1 0 -244z" />
    </g>
</svg>
