<svg width="17" height="20" viewBox="0 0 17 20" fill="none" xmlns="http://www.w3.org/2000/svg">
<path d="M10.4918 8.71802H6.50806V13.6407H10.4918V8.71802Z" fill="#D0D0D0"/>
<path d="M10.9473 10.0129C12.6997 10.4782 14.2146 11.424 15.2877 12.6712C16.3615 13.9196 17 15.4689 17 17.1412V19.0932C17 19.5939 16.5368 19.9999 15.9656 19.9999H1.03445C0.463229 19.9999 0 19.5939 0 19.0932V17.1412C0 15.4689 0.638463 13.9195 1.71233 12.6712C2.69035 11.5344 4.74015 10.1602 6.23056 9.97632L8.5197 11.5791L10.9472 10.0129L10.9473 10.0129Z" fill="#D0D0D0"/>
<path d="M9.37748 11.532H7.62256V20H9.37748V11.532Z" fill="#B7B7B7"/>
<path fill-rule="evenodd" clip-rule="evenodd" d="M4.63918 2.72827H12.3609V6.14584C12.3609 8.28841 10.6235 10.0415 8.50003 10.0415C6.37652 10.0415 4.63916 8.28848 4.63916 6.14584V2.72827H4.63918Z" fill="#E4E4E4"/>
<path fill-rule="evenodd" clip-rule="evenodd" d="M4.5502 4.58827C5.15185 4.48539 5.7681 4.29598 6.3421 4.02659C6.99979 3.71799 7.61104 3.29948 8.09687 2.77866C8.33366 3.01842 8.5851 3.24923 8.84715 3.46759C9.88407 4.33166 11.1104 5.02605 12.2683 5.326C12.4434 4.75933 12.543 4.16997 12.543 3.5927C12.543 2.2157 12.0604 1.31043 11.2803 0.739834C10.5412 0.199197 9.56305 0 8.50003 0C7.43695 0 6.45887 0.199197 5.71975 0.739834C4.9396 1.31044 4.45703 2.21567 4.45703 3.5927C4.45703 3.98682 4.47697 4.1878 4.5502 4.58828V4.58827Z" fill="black"/>
<path d="M8.4999 11.5268L5.79175 8.95435L4.96861 10.3422L7.67677 12.9146L8.4999 11.5268Z" fill="#969696"/>
<path d="M8.49985 11.5268L11.208 8.95435L12.0311 10.3422L9.32298 12.9146L8.49985 11.5268Z" fill="#969696"/>
</svg>
