<?xml version="1.0" encoding="UTF-8"?>
<svg width="3090px" height="3090px" viewBox="0 0 3090 3090" version="1.1" xmlns="http://www.w3.org/2000/svg" xmlns:xlink="http://www.w3.org/1999/xlink">
    <title>CM_Symbol</title>
    <g id="CM_Symbol" stroke="none" stroke-width="1" fill="none" fill-rule="evenodd">
        <g transform="translate(11.000000, 43.000000)" fill="#3B0065" fill-rule="nonzero" id="Group">
            <g transform="translate(1534.058122, 1501.920702) scale(-1, 1) rotate(-180.000000) translate(-1534.058122, -1501.920702) translate(0.000000, 0.000000)">
                <path d="M1444.01624,3002.77362 C1164.71624,2992.37362 897.116244,2905.57362 665.716244,2750.47362 C405.416244,2575.97362 205.416244,2323.67362 95.4162441,2031.27362 C2.51624408,1784.07362 -23.1837559,1512.87362 21.1162441,1248.37362 C84.3162441,871.273624 292.816244,530.173624 601.516244,298.773624 C833.016244,125.173624 1110.31624,22.3736244 1398.01624,3.37362435 C1665.41624,-14.2263756 1926.01624,37.1736244 2163.51624,154.373624 C2228.91624,186.673624 2315.71624,237.573624 2326.31624,249.973624 C2334.91624,259.873624 2338.41624,270.673624 2337.81624,285.273624 C2336.91624,304.373624 2333.01624,310.573624 2310.01624,328.973624 C2150.11624,457.173624 2018.21624,617.673624 1920.51624,802.673624 C1910.91624,820.873624 1907.91624,825.673624 1904.11624,828.973624 C1894.31624,837.673624 1883.41624,841.273624 1868.51624,840.673624 L1858.41624,840.373624 L1831.41624,827.173624 C1801.91624,812.773624 1781.71624,804.073624 1755.01624,794.373624 C1591.51624,735.073624 1408.51624,735.073624 1245.01624,794.373624 C1195.31624,812.373624 1144.41624,837.373624 1099.51624,865.673624 C948.216244,961.273624 834.316244,1110.47362 782.616244,1280.67362 C753.716244,1375.77362 743.816244,1476.07362 753.516244,1576.87362 C772.216244,1770.37362 865.416244,1948.37362 1015.01624,2075.97362 C1081.51624,2132.67362 1161.71624,2179.17362 1245.01624,2209.37362 C1408.51624,2268.67362 1591.51624,2268.67362 1755.01624,2209.37362 C1781.71624,2199.67362 1801.91624,2190.97362 1831.41624,2176.57362 L1858.41624,2163.37362 L1868.51624,2163.07362 C1883.41624,2162.47362 1894.31624,2166.07362 1904.11624,2174.77362 C1907.91624,2178.07362 1910.91624,2182.87362 1920.51624,2201.07362 C2018.21624,2386.07362 2150.11624,2546.57362 2310.01624,2674.77362 C2333.01624,2693.17362 2336.91624,2699.37362 2337.81624,2718.47362 C2338.41624,2733.07362 2334.91624,2743.87362 2326.31624,2753.77362 C2320.81624,2760.17362 2288.51624,2780.97362 2246.11624,2805.27362 C2003.11624,2944.87362 1725.21624,3013.37362 1444.01624,3002.77362 Z" id="Path"></path>
                <path d="M2642.71624,2244.47362 C2542.11624,2181.27362 2449.41624,2090.47362 2382.41624,1989.37362 C2312.01624,1883.07362 2266.91624,1767.67362 2247.11624,1643.37362 C2239.31624,1594.77362 2236.01624,1551.87362 2236.01624,1499.87362 C2236.01624,1458.67362 2237.51624,1432.67362 2242.01624,1392.87362 C2268.01624,1165.67362 2384.41624,955.873624 2564.51624,811.273624 C2588.41624,792.073624 2630.71624,761.973624 2647.31624,752.473624 L2652.01624,749.673624 L2656.81624,752.473624 C2673.31624,761.973624 2715.61624,792.073624 2739.51624,811.273624 C2889.91624,931.973624 2996.51624,1098.57362 3042.41624,1284.47362 C3054.51624,1333.57362 3061.31624,1377.27362 3066.01624,1435.37362 C3068.81624,1470.57362 3068.81624,1529.17362 3066.01624,1564.37362 C3059.61624,1643.27362 3048.21624,1702.97362 3026.31624,1771.87362 C2967.81624,1955.87362 2845.51624,2119.77362 2685.71624,2228.27362 C2668.51624,2239.97362 2653.11624,2249.87362 2652.01624,2249.87362 C2651.61624,2249.87362 2647.41624,2247.47362 2642.71624,2244.47362 Z" id="Path"></path>
            </g>
        </g>
    </g>
</svg>