<?xml version="1.0" encoding="UTF-8"?>
<svg width="7224px" height="1366px" viewBox="0 0 7224 1366" version="1.1" xmlns="http://www.w3.org/2000/svg" xmlns:xlink="http://www.w3.org/1999/xlink">
    <title>CM_Logo_H_Black</title>
    <g id="CM_Logo_H_Black" stroke="none" stroke-width="1" fill="none" fill-rule="evenodd">
        <g transform="translate(27.000000, 20.000000)" fill="#3B0065" fill-rule="nonzero" id="Group">
            <g transform="translate(3584.813502, 662.779421) scale(-1, 1) rotate(-180.000000) translate(-3584.813502, -662.779421) translate(0.000000, 0.000000)">
                <path d="M626.672302,1324.6643 C402.372302,1313.0643 197.972302,1186.6643 86.2723021,990.564302 C-21.2276979,801.664302 -28.7276979,568.164302 66.3723021,373.264302 C99.9723021,304.464302 140.772302,247.164302 194.072302,193.864302 C349.972302,38.0643025 569.872302,-29.3356975 787.472302,11.8643025 C867.172302,26.9643025 951.772302,60.6643025 1017.0723,103.264302 C1025.4723,108.764302 1026.9723,110.164302 1029.3723,114.864302 C1034.4723,125.164302 1031.6723,135.664302 1021.6723,143.264302 C1001.5723,158.664302 965.272302,192.664302 944.472302,215.764302 C907.072302,257.064302 876.272302,300.764302 850.472302,348.764302 C846.172302,356.764302 841.972302,364.164302 841.072302,365.164302 C838.372302,368.364302 831.872302,370.764302 825.672302,370.764302 C820.772302,370.764302 818.472302,370.064302 810.172302,365.864302 C775.472302,348.464302 738.372302,337.564302 697.472302,332.664302 C683.072302,330.864302 640.872302,330.864302 626.472302,332.664302 C585.572302,337.564302 548.472302,348.464302 513.872302,365.864302 C436.572302,404.564302 376.572302,473.264302 348.772302,554.764302 C336.272302,591.264302 331.472302,621.464302 331.472302,662.764302 C331.472302,689.564302 332.272302,699.164302 336.072302,721.764302 C346.372302,782.064302 376.372302,842.264302 418.972302,888.264302 C467.872302,941.064302 532.172302,976.464302 601.972302,989.164302 C624.672302,993.264302 636.172302,994.264302 661.972302,994.264302 C687.772302,994.264302 699.272302,993.264302 721.972302,989.164302 C752.272302,983.664302 782.372302,973.564302 810.172302,959.664302 C818.472302,955.464302 820.772302,954.764302 825.672302,954.764302 C831.872302,954.764302 838.372302,957.164302 841.072302,960.364302 C841.972302,961.364302 846.172302,968.764302 850.472302,976.764302 C876.272302,1024.7643 907.072302,1068.4643 944.472302,1109.7643 C965.272302,1132.8643 1001.5723,1166.8643 1021.6723,1182.2643 C1031.6723,1189.8643 1034.4723,1200.3643 1029.3723,1210.6643 C1026.9723,1215.3643 1025.4723,1216.7643 1017.0723,1222.2643 C992.472302,1238.3643 954.972302,1258.2643 925.272302,1271.0643 C831.472302,1311.6643 729.372302,1329.9643 626.672302,1324.6643 Z" id="Path"></path>
                <path d="M2051.4723,1009.0643 C2028.5723,1007.6643 2007.4723,1004.3643 1982.6723,998.164302 C1954.2723,990.964302 1931.8723,982.464302 1908.7723,969.864302 C1829.3723,926.564302 1763.7723,847.864302 1740.6723,768.264302 C1728.5723,726.464302 1724.2723,694.564302 1725.2723,654.264302 C1726.0723,623.664302 1728.5723,605.864302 1736.0723,575.264302 C1742.8723,548.164302 1749.0723,531.364302 1761.2723,507.264302 C1782.8723,464.764302 1818.1723,422.064302 1857.9723,390.064302 C1884.8723,368.464302 1921.2723,347.664302 1950.4723,337.164302 C1974.5723,328.564302 2010.6723,320.464302 2037.4723,317.664302 C2053.9723,315.964302 2091.8723,316.264302 2108.4723,318.264302 C2132.2723,321.064302 2159.3723,326.964302 2182.2723,334.364302 C2220.6723,346.764302 2259.5723,369.364302 2295.2723,399.764302 C2308.0723,410.764302 2311.1723,414.664302 2312.9723,422.464302 C2314.3723,428.864302 2312.8723,437.164302 2309.2723,441.964302 C2304.2723,448.764302 2229.8723,528.364302 2226.8723,530.164302 C2221.1723,533.464302 2214.2723,534.564302 2207.5723,532.964302 C2201.4723,531.564302 2198.2723,529.564302 2187.9723,520.464302 C2175.2723,509.264302 2151.9723,495.864302 2131.9723,488.464302 C2099.6723,476.464302 2048.7723,475.664302 2014.9723,486.764302 C2001.7723,491.064302 1977.2723,503.464302 1966.0723,511.464302 C1948.4723,524.164302 1927.9723,545.464302 1916.5723,562.964302 C1904.1723,581.964302 1893.6723,607.364302 1890.5723,625.964302 C1884.8723,659.264302 1887.0723,695.864302 1896.4723,722.764302 C1906.3723,751.364302 1921.6723,774.664302 1945.1723,797.264302 C1961.7723,813.264302 1977.2723,823.864302 1997.8723,833.164302 C2021.8723,843.964302 2038.8723,847.264302 2070.9723,847.164302 C2097.7723,847.164302 2108.2723,845.764302 2126.7723,839.564302 C2148.7723,832.264302 2169.5723,820.764302 2187.4723,805.764302 C2192.4723,801.664302 2197.2723,797.664302 2198.2723,796.864302 C2199.2723,796.064302 2202.8723,794.664302 2206.2723,793.764302 C2211.7723,792.264302 2212.9723,792.264302 2217.9723,793.464302 C2220.9723,794.264302 2224.7723,795.664302 2226.2723,796.564302 C2229.3723,798.364302 2307.3723,882.264302 2310.0723,886.564302 C2310.9723,888.064302 2312.2723,891.664302 2312.9723,894.564302 C2314.3723,900.564302 2313.0723,907.964302 2309.6723,913.564302 C2305.4723,920.664302 2273.6723,945.964302 2251.2723,960.064302 C2237.7723,968.564302 2212.1723,981.164302 2196.4723,987.064302 C2152.8723,1003.4643 2097.2723,1011.8643 2051.4723,1009.0643 Z" id="Path"></path>
                <path d="M1157.3723,984.664302 C1063.4723,920.664302 1003.6723,822.664302 989.372302,709.764302 C986.972302,690.064302 986.372302,645.964302 988.372302,625.064302 C999.572302,508.164302 1060.1723,405.364302 1156.6723,339.664302 L1170.0723,330.564302 L1175.2723,333.764302 C1194.5723,345.664302 1222.2723,368.064302 1240.9723,386.764302 C1329.9723,476.064302 1369.4723,601.764302 1348.3723,728.764302 C1332.6723,823.364302 1280.9723,909.764302 1204.3723,969.364302 C1192.7723,978.364302 1171.7723,992.764302 1170.2723,992.764302 C1169.7723,992.764302 1163.9723,989.064302 1157.3723,984.664302 Z" id="Path"></path>
                <path d="M2411.8723,991.364302 C2403.3723,988.964302 2397.6723,983.164302 2395.3723,974.364302 C2393.3723,966.764302 2393.3723,359.764302 2395.3723,352.264302 C2397.9723,342.364302 2403.5723,336.764302 2413.4723,334.164302 C2420.9723,332.164302 2529.1723,332.164302 2536.7723,334.164302 C2547.0723,336.964302 2552.6723,342.664302 2555.3723,353.364302 C2556.7723,358.764302 2556.9723,370.264302 2556.9723,440.664302 L2556.9723,521.764302 L2630.2723,521.664302 L2703.4723,521.664302 L2770.5723,431.464302 C2807.4723,381.964302 2839.2723,340.064302 2841.1723,338.464302 C2847.9723,332.964302 2850.2723,332.764302 2922.4723,332.764302 C2993.5723,332.764302 2994.9723,332.864302 3002.8723,338.064302 C3007.6723,341.264302 3011.4723,347.064302 3012.9723,353.364302 C3015.4723,364.364302 3018.5723,359.664302 2940.5723,463.564302 C2901.7723,515.364302 2869.8723,558.164302 2869.7723,558.664302 C2869.5723,559.164302 2872.9723,562.064302 2877.2723,565.064302 C2910.2723,588.164302 2937.9723,620.464302 2955.3723,656.264302 C2964.4723,674.864302 2971.2723,697.464302 2975.6723,723.364302 C2978.1723,738.764302 2978.1723,775.664302 2975.6723,791.264302 C2972.8723,807.864302 2966.4723,831.664302 2961.3723,844.664302 C2939.3723,900.264302 2886.8723,952.764302 2830.9723,975.264302 C2818.5723,980.264302 2796.4723,986.364302 2777.9723,989.964302 L2766.4723,992.164302 L2591.4723,992.364302 C2451.6723,992.564302 2415.5723,992.364302 2411.8723,991.364302 Z M2760.4723,831.464302 C2773.4723,826.864302 2782.4723,821.264302 2792.5723,811.264302 C2802.8723,801.164302 2808.3723,792.364302 2812.5723,779.264302 C2814.8723,772.164302 2815.1723,769.664302 2815.1723,756.764302 C2815.1723,744.564302 2814.7723,741.164302 2812.9723,735.264302 C2805.0723,710.464302 2787.5723,692.864302 2760.3723,682.564302 L2754.4723,680.264302 L2655.7723,679.964302 L2556.9723,679.664302 L2556.9723,757.264302 L2556.9723,834.864302 L2654.7723,834.564302 L2752.4723,834.264302 L2760.4723,831.464302 Z" id="Shape"></path>
                <path d="M3094.7723,991.264302 C3086.0723,988.864302 3080.7723,983.464302 3078.3723,974.464302 C3076.4723,967.164302 3076.2723,358.864302 3078.2723,351.764302 C3080.7723,342.564302 3086.7723,336.664302 3096.4723,334.164302 C3103.8723,332.164302 3591.0723,332.164302 3598.4723,334.164302 C3608.2723,336.764302 3614.5723,342.964302 3616.7723,351.964302 C3618.4723,358.564302 3618.4723,461.164302 3616.7723,469.264302 C3615.7723,474.164302 3614.8723,475.864302 3610.3723,480.264302 C3601.2723,489.464302 3616.4723,488.764302 3414.8723,488.764302 L3238.9723,488.764302 L3238.9723,536.764302 L3238.9723,584.764302 L3382.7723,584.764302 C3538.0723,584.864302 3533.7723,584.664302 3541.9723,590.164302 C3544.0723,591.464302 3546.7723,594.264302 3547.9723,596.264302 C3552.5723,603.764302 3552.8723,607.864302 3552.9723,663.064302 C3552.9723,723.964302 3552.8723,724.764302 3544.9723,732.764302 C3536.3723,741.264302 3547.2723,740.764302 3382.9723,740.764302 L3238.9723,740.764302 L3238.9723,789.264302 L3238.9723,837.764302 L3414.7723,837.764302 C3616.4723,837.764302 3601.2723,837.064302 3610.4723,846.364302 C3618.1723,853.964302 3618.1723,854.564302 3617.7723,919.264302 C3617.4723,959.964302 3617.0723,974.164302 3616.0723,977.164302 C3614.4723,982.064302 3607.2723,989.264302 3602.3723,990.964302 C3596.6723,992.864302 3101.7723,993.264302 3094.7723,991.264302 Z" id="Path"></path>
                <path d="M3731.5723,991.464302 C3727.6723,990.564302 3725.4723,989.264302 3721.4723,985.164302 C3712.1723,975.864302 3712.9723,1007.3643 3712.9723,662.364302 C3713.0723,334.064302 3712.7723,352.264302 3718.3723,343.764302 C3719.6723,341.664302 3722.4723,338.964302 3724.4723,337.764302 C3732.7723,332.664302 3728.3723,332.76416 3876.4723,332.76416 C4012.8723,332.76416 4026.9723,333.064302 4048.2723,336.264302 C4104.6723,344.664302 4152.4723,365.164302 4197.9723,400.364302 C4211.6723,410.864302 4243.5723,442.364302 4254.0723,455.764302 C4291.9723,503.564302 4311.4723,547.664302 4321.8723,608.764302 C4325.3723,629.064302 4326.2723,644.164302 4325.6723,671.564302 C4324.9723,705.964302 4321.2723,729.664302 4311.2723,764.264302 C4284.2723,857.464302 4199.8723,945.164302 4108.1723,975.364302 C4095.7723,979.464302 4074.4723,984.864302 4059.8723,987.664302 C4033.6723,992.664302 4030.1723,992.764302 3878.2723,992.664302 C3782.3723,992.564302 3734.8723,992.164302 3731.5723,991.464302 Z M4028.9723,832.364302 C4042.0723,829.964302 4054.2723,825.764302 4069.4723,818.364302 C4084.5723,810.964302 4095.8723,803.164302 4108.4723,791.464302 C4126.0723,775.164302 4137.1723,760.164302 4147.5723,739.264302 C4160.1723,713.664302 4164.2723,694.964302 4164.2723,663.264302 C4164.2723,632.564302 4160.1723,613.364302 4148.3723,588.764302 C4127.9723,546.264302 4091.0723,513.564302 4046.9723,498.764302 C4028.5723,492.664302 4026.5723,492.564302 3947.7723,492.064302 L3875.9723,491.664302 L3875.9723,663.264302 L3875.9723,834.864302 L3947.7723,834.464302 C4010.2723,834.164302 4020.6723,833.864302 4028.9723,832.364302 Z" id="Shape"></path>
                <path d="M4412.5723,991.464302 C4408.6723,990.564302 4406.4723,989.264302 4402.4723,985.164302 C4393.1723,975.864302 4393.9723,1007.3643 4393.9723,662.364302 C4394.0723,334.064302 4393.7723,352.264302 4399.3723,343.764302 C4402.3723,339.164302 4407.2723,336.064302 4414.2723,334.164302 C4421.7723,332.164302 4530.0723,332.164302 4537.4723,334.164302 C4546.4723,336.464302 4552.2723,341.764302 4555.3723,350.164302 C4556.1723,352.364302 4556.5723,398.864302 4556.9723,516.664302 L4557.4723,680.164302 L4628.8723,580.164302 C4668.0723,525.264302 4701.9723,478.564302 4704.2723,476.564302 C4711.0723,470.364302 4715.6723,469.764302 4753.6723,469.764302 C4788.6723,469.764302 4793.1723,470.264302 4800.0723,474.764302 C4802.0723,476.064302 4804.4723,478.264302 4805.5723,479.764302 C4806.5723,481.264302 4839.4723,527.064302 4878.4723,581.664302 L4949.4723,680.864302 L4949.9723,516.064302 C4950.4723,367.064302 4950.6723,350.964302 4952.0723,347.764302 C4955.2723,340.864302 4960.8723,336.364302 4969.1723,334.164302 C4976.7723,332.164302 5083.9723,332.164302 5091.4723,334.164302 C5101.5723,336.864302 5107.8723,343.164302 5109.8723,352.764302 C5111.7723,361.264302 5110.96516,971.764302 5109.1723,977.164302 C5107.4723,982.064302 5100.2723,989.264302 5095.3723,990.864302 C5092.4723,991.864302 5079.5723,992.264302 5045.4723,992.564302 C4994.3723,992.964302 4990.3723,992.564302 4983.8723,987.364302 C4981.3723,985.364302 4937.9723,925.564302 4867.3723,826.764302 C4805.4723,740.164302 4754.2723,668.764302 4753.6723,668.064302 C4752.7723,667.264302 4725.0723,705.364302 4639.4723,825.464302 C4565.7723,928.964302 4525.0723,985.164302 4522.4723,987.264302 C4520.0723,989.164302 4516.2723,990.864302 4513.1723,991.564302 C4506.2723,993.164302 4419.6723,992.964302 4412.5723,991.464302 Z" id="Path"></path>
                <path d="M5417.6723,991.264302 C5411.5723,989.564302 5406.6723,985.864302 5403.5723,980.464302 C5400.0723,974.464302 5159.0723,372.664302 5156.9723,364.764302 C5155.3723,358.664302 5155.3723,357.764302 5156.9723,352.164302 C5158.8723,344.964302 5161.7723,340.664302 5166.4723,337.764302 C5174.2723,332.964302 5176.7723,332.764302 5237.2723,332.764302 C5303.6723,332.764302 5303.9723,332.764302 5311.7723,340.764302 C5316.2723,345.264302 5317.4723,347.864302 5341.4723,407.564302 L5366.3723,469.764302 L5498.4723,469.764302 L5630.5723,469.764302 L5655.2723,408.064302 C5668.8723,374.064302 5681.1723,344.864302 5682.5723,343.064302 C5686.2723,338.264302 5690.3723,335.764302 5696.7723,334.164302 C5705.3723,332.164302 5813.1723,332.164302 5820.8723,334.264302 C5830.7723,336.864302 5836.2723,342.364302 5838.9723,352.164302 C5840.5723,357.864302 5840.5723,358.564302 5838.9723,364.764302 C5836.8723,372.564302 5596.8723,974.464302 5593.3723,980.464302 C5590.1723,985.964302 5585.3723,989.564302 5578.7723,991.364302 C5571.2723,993.364302 5424.9723,993.264302 5417.6723,991.264302 Z M5534.3723,709.064302 C5553.3723,661.664302 5568.9723,622.664302 5568.9723,622.364302 C5568.9723,622.064302 5537.0723,621.764302 5498.0723,621.764302 L5427.2723,621.764302 L5462.1723,709.464302 C5481.3723,757.664302 5497.3723,797.564302 5497.6723,798.164302 C5498.0723,798.664302 5498.6723,798.264302 5499.0723,797.164302 C5499.4723,796.164302 5515.3723,756.464302 5534.3723,709.064302 Z" id="Shape"></path>
                <path d="M5905.8723,991.364302 C5897.3723,988.964302 5891.6723,983.164302 5889.3723,974.364302 C5887.3723,966.764302 5887.3723,359.764302 5889.3723,352.264302 C5891.9723,342.364302 5897.5723,336.764302 5907.4723,334.164302 C5914.9723,332.164302 6023.1723,332.164302 6030.7723,334.164302 C6041.0723,336.964302 6046.6723,342.664302 6049.3723,353.364302 C6050.7723,358.764302 6050.9723,370.264302 6050.9723,440.664302 L6050.9723,521.764302 L6124.2723,521.664302 L6197.4723,521.664302 L6264.5723,431.464302 C6301.4723,381.964302 6333.2723,340.064302 6335.1723,338.464302 C6341.9723,332.964302 6344.2723,332.764302 6416.4723,332.764302 C6487.5723,332.764302 6488.9723,332.864302 6496.8723,338.064302 C6501.6723,341.264302 6505.4723,347.064302 6506.9723,353.364302 C6509.4723,364.364302 6512.5723,359.664302 6434.5723,463.564302 C6395.7723,515.364302 6363.8723,558.164302 6363.7723,558.664302 C6363.5723,559.164302 6366.9723,562.064302 6371.2723,565.064302 C6404.2723,588.164302 6431.9723,620.464302 6449.3723,656.264302 C6458.4723,674.864302 6465.2723,697.464302 6469.6723,723.364302 C6472.1723,738.764302 6472.1723,775.664302 6469.6723,791.264302 C6466.8723,807.864302 6460.4723,831.664302 6455.3723,844.664302 C6433.3723,900.264302 6380.8723,952.764302 6324.9723,975.264302 C6312.5723,980.264302 6290.4723,986.364302 6271.9723,989.964302 L6260.4723,992.164302 L6085.4723,992.364302 C5945.6723,992.564302 5909.5723,992.364302 5905.8723,991.364302 Z M6254.4723,831.464302 C6267.4723,826.864302 6276.4723,821.264302 6286.5723,811.264302 C6296.8723,801.164302 6302.3723,792.364302 6306.5723,779.264302 C6308.8723,772.164302 6309.1723,769.664302 6309.1723,756.764302 C6309.1723,744.564302 6308.7723,741.164302 6306.9723,735.264302 C6299.0723,710.464302 6281.5723,692.864302 6254.3723,682.564302 L6248.4723,680.264302 L6149.7723,679.964302 L6050.9723,679.664302 L6050.9723,757.264302 L6050.9723,834.864302 L6148.7723,834.564302 L6246.4723,834.264302 L6254.4723,831.464302 Z" id="Shape"></path>
                <path d="M6579.5723,991.564302 C6575.7723,990.764302 6573.6723,989.464302 6569.4723,985.264302 C6560.0723,975.864302 6560.9723,1008.5643 6560.9723,662.764302 C6560.9723,318.464302 6560.1723,349.664302 6568.9723,340.764302 C6577.0723,332.764302 6577.3723,332.764302 6642.4723,332.764302 C6707.4723,332.764302 6708.1723,332.864302 6715.9723,340.764302 C6724.1723,348.864302 6723.9723,346.564302 6723.9723,437.664302 L6723.9723,516.664302 L6751.2723,545.764302 L6778.4723,574.864302 L6783.7723,569.064302 C6786.5723,565.864302 6833.6723,513.064302 6888.2723,451.664302 C6946.3723,386.364302 6989.1723,338.964302 6991.4723,337.564302 C6993.6723,336.164302 6997.8723,334.464302 7000.7723,333.864302 C7004.3723,333.164302 7028.6723,332.764302 7075.7723,332.764302 C7150.8723,332.764302 7151.7723,332.864302 7159.4723,338.064302 C7167.3723,343.464302 7171.2723,354.064302 7168.9723,363.864302 C7168.2723,366.864302 7167.1723,370.064302 7166.5723,371.064302 C7165.9723,372.064302 7102.5723,443.864302 7025.7723,530.564302 L6885.9723,688.264302 L6894.3723,696.764302 C6912.4723,715.264302 7134.5723,950.464302 7136.5723,953.264302 C7140.1723,958.364302 7141.3723,965.764302 7139.9723,973.364302 C7138.8723,979.264302 7138.1723,980.564302 7133.4723,985.164302 C7129.0723,989.664302 7127.3723,990.564302 7122.4723,991.564302 C7114.0723,993.264302 6977.4723,993.164302 6970.4723,991.464302 C6967.7723,990.764302 6963.8723,989.164302 6961.9723,987.864302 C6960.0723,986.464302 6905.8723,929.764302 6841.4723,861.764302 L6724.4723,738.064302 L6723.9723,854.664302 C6723.4723,950.564302 6723.1723,972.064302 6721.9723,975.764302 C6721.0723,978.764302 6718.8723,981.964302 6715.3723,985.364302 C6711.0723,989.664302 6709.2723,990.664302 6704.4723,991.564302 C6697.0723,993.064302 6586.7723,992.964302 6579.5723,991.564302 Z" id="Path"></path>
            </g>
        </g>
    </g>
</svg>