<svg width="633" height="440" viewBox="0 0 633 440" fill="none" xmlns="http://www.w3.org/2000/svg">
    <mask id="mask0_1625_25931" style="mask-type:alpha" maskUnits="userSpaceOnUse" x="0" y="0" width="633" height="440">
        <path d="M0 0H633V440H0V0Z" fill="white" />
    </mask>
    <g mask="url(#mask0_1625_25931)">
        <mask id="mask1_1625_25931" style="mask-type:alpha" maskUnits="userSpaceOnUse" x="-21" y="242" width="654"
            height="200">
            <rect width="653.636" height="198.755" transform="matrix(-1 0 0 1 633 242.407)" fill="#C4C4C4" />
        </mask>
        <g mask="url(#mask1_1625_25931)">
            <path
                d="M629.924 300.092L635.006 291.788L644.54 304.243L640.507 446.459H150.998L16.0441 457.531L8.70819 446.459L13.4766 439.604L16.0441 436.486L20.4457 431.81L31.4497 434.148L43.9209 428.302L53.0908 415.831L58.9596 404.14H63.728L69.5968 408.037L75.8324 422.067L83.1684 426.354L90.5043 417.39H101.875L110.311 408.037L117.281 404.14L119.481 394.397L122.049 384.263L129.385 383.131L134.52 375.582L139.289 377.846L144.424 385.773L150.659 388.162L158.332 378.979L163.414 366.523L168.497 368.41L172.49 375.582L180.477 386.528L185.197 385.773L190.279 386.528L196.451 381.621L201.171 370.297L210.973 368.41L222.227 377.846L227.673 375.582L233.118 384.263L240.016 383.131L244.373 375.582L255.264 386.528L260.347 381.621L270.875 386.528L276.321 371.052L281.766 377.846L291.931 375.582L298.103 384.263L306.816 368.787L313.351 362.371L318.796 346.895L324.968 348.405L328.599 339.346H335.133L338.764 349.915L344.936 362.371L351.107 357.841L356.553 359.729L361.999 366.9L372.164 357.086L377.972 361.238L388.501 353.312L393.583 339.346L399.392 332.175L409.557 333.307L415.003 336.704L420.085 333.307L426.62 350.292L436.059 330.288L441.868 338.591L446.224 336.704L452.396 330.288L458.568 345.386L462.924 369.542L469.096 357.086L474.905 355.954L479.261 350.292L483.981 352.935L492.694 361.616L500.681 363.126L506.852 365.768L515.202 361.616L521.737 363.126L528.272 365.768L534.444 352.935L543.157 358.219L550.781 355.954L558.041 338.591L565.665 319.719L574.741 313.68H581.639L592.53 320.851L598.339 319.719L602.333 306.131L609.23 308.018L613.224 304.243H618.67L623.389 296.694L629.924 300.092Z"
                fill="url(#paint0_linear_1625_25931)" fill-opacity="0.2" stroke="#8937B8" />
            <path
                d="M629.904 379.864L635.006 372.746L644.54 379.864V446.171H156.498L17.5113 453.633L25.2141 446.171L32.55 438.044H43.554L47.222 429.47L79.1335 424.014L87.2031 415.455L89.7707 408.712L101.141 398.222L109.945 406.839L119.848 408.712L131.219 415.455L138.188 424.014L148.459 427.911L155.061 414.331L161.976 407.588L166.349 408.337L172.909 414.331L188.579 415.455L196.597 407.588L199.148 398.222H204.25L211.174 395.974L217.005 403.841L221.378 404.591L228.302 406.839L237.049 413.207L243.244 408.712L253.812 416.579L256.363 413.207L262.923 410.21L271.305 411.709L278.958 408.712L289.891 411.709L297.18 417.329L305.561 408.712L312.85 406.839L317.952 401.219L323.419 400.47L328.156 394.85L335.445 396.348H344.92L350.022 391.853L361.684 399.346L365.692 396.348L371.888 397.847H377.354L382.821 392.602L388.652 393.351L392.66 384.735L398.856 388.106L402.864 394.101H409.789L412.34 397.847L418.17 400.844L426.188 405.715L432.019 403.467L437.121 392.602L448.054 399.346H452.427L457.893 400.844L469.191 418.078H474.293L489.599 408.712L495.794 421.45L503.812 422.199L511.465 425.571L516.567 421.45H522.033L527.135 424.447H532.966L542.441 410.585L549.365 409.836L554.832 415.081L559.934 416.579L565.765 405.715L570.138 397.098L575.604 391.853H580.706L585.444 386.233L592.733 385.484L597.835 389.98L602.937 397.098L609.132 388.856L612.776 386.233H618.607L624.802 380.613L629.904 379.864Z"
                fill="url(#paint1_linear_1625_25931)" fill-opacity="0.2" stroke="#00C389" />
        </g>
        <mask id="mask2_1625_25931" style="mask-type:alpha" maskUnits="userSpaceOnUse" x="-378" y="0" width="1028"
            height="442">
            <rect width="1026.32" height="441.163" transform="matrix(-1 0 0 1 649.158 0)" fill="#C4C4C4" />
        </mask>
        <g mask="url(#mask2_1625_25931)">
            <path
                d="M634.867 111.789L640.635 92.4998L651.454 121.433L646.876 451.781H91.3506L-61.804 477.5L-70.1293 451.781L-64.7178 435.858L-61.804 428.616L-56.8088 417.753L-44.3208 423.184L-30.1677 409.605L-19.761 380.637L-13.1007 353.479H-7.68921L-1.02893 362.532L6.04761 395.121L14.3729 405.079L22.6983 384.258H35.6025L45.1767 362.532L53.0858 353.479L55.5834 330.848L58.4973 307.308L66.8226 304.677L72.6504 287.142L78.0618 292.403L83.8896 310.815L90.9661 316.364L99.6732 295.033L105.441 266.1L111.209 270.483L115.741 287.142L124.805 312.568L130.161 310.815L135.93 312.568L142.934 301.17L148.29 274.867L159.414 270.483L172.186 292.403L178.366 287.142L184.546 307.308L192.374 304.677L197.318 287.142L209.678 312.568L215.446 301.17L227.394 312.568L233.575 276.621L239.755 292.403L251.291 287.142L258.295 307.308L268.183 271.36L275.599 256.455L281.779 220.508L288.783 224.015L292.903 202.972H300.319L304.439 227.522L311.443 256.455L318.447 245.934L324.627 250.318L330.807 266.976L342.344 244.18L348.936 253.825L360.884 235.413L366.652 202.972L373.244 186.314L384.78 188.944L390.96 196.835L396.728 188.944L404.144 228.399L414.856 181.93L421.448 201.219L426.392 196.835L433.397 181.93L440.401 217.001L445.345 273.114L452.349 244.18L458.941 241.55L463.885 228.399L469.241 234.536L479.129 254.702L488.193 258.209L495.197 264.346L504.673 254.702L512.089 258.209L519.505 264.346L526.509 234.536L536.398 246.811L545.05 241.55L553.29 201.219L561.942 157.381L572.242 143.352H580.07L592.43 160.011L599.022 157.381L603.554 125.817L611.382 130.201L615.914 121.433H622.094L627.45 103.898L634.867 111.789Z"
                fill="url(#paint2_linear_1625_25931)" fill-opacity="0.2" stroke="#8937B8" />
            <path
                d="M644.298 305.105L652.309 289.305L667.278 305.105V452.28H-99.0317L-317.265 468.844L-305.171 452.28L-293.652 434.243H-276.374L-270.614 415.212L-220.508 403.102L-207.837 384.104L-203.806 369.136L-185.952 345.852L-172.129 364.978L-156.579 369.136L-138.725 384.104L-127.782 403.102L-111.656 411.752L-101.289 381.609L-90.4308 366.641L-83.5641 368.304L-73.2642 381.609L-48.6589 384.104L-36.07 366.641L-32.0645 345.852H-24.0534L-13.1812 340.862L-4.02576 358.325L2.84082 359.988L13.713 364.978L27.4463 379.114L37.174 369.136L53.7683 386.599L57.7739 379.114L68.0738 372.462L81.2349 375.788L93.2515 369.136L110.418 375.788L121.862 388.262L135.023 369.136L146.468 364.978L154.479 352.504L163.062 350.841L170.501 338.368L181.945 341.694H196.823L204.834 331.715L223.145 348.346L229.439 341.694L239.167 345.02H247.75L256.334 333.378L265.489 335.041L271.784 315.915L281.511 323.399L287.806 336.704H298.678L302.683 345.02L311.839 351.673L324.428 362.483L333.583 357.494L341.594 333.378L358.761 348.346H365.628L374.211 351.673L391.95 389.925H399.961L423.994 369.136L433.722 397.409L446.31 399.072L458.327 406.556L466.338 397.409H474.921L482.932 404.062H492.088L506.966 373.294L517.838 371.63L526.421 383.272L534.432 386.599L543.588 362.483L550.454 343.357L559.037 331.715H567.049L574.487 319.242L585.932 317.578L593.943 327.557L601.954 343.357L611.682 325.063L617.404 319.242H626.559L636.287 306.768L644.298 305.105Z"
                fill="url(#paint3_linear_1625_25931)" fill-opacity="0.2" stroke="#00C389" />
        </g>
    </g>
    <defs>
        <linearGradient id="paint0_linear_1625_25931" x1="326.624" y1="291.788" x2="326.624" y2="457.531"
            gradientUnits="userSpaceOnUse">
            <stop stop-color="#A100FF" />
            <stop offset="1" stop-color="#5B0090" stop-opacity="0" />
        </linearGradient>
        <linearGradient id="paint1_linear_1625_25931" x1="331.026" y1="372.746" x2="331.026" y2="453.633"
            gradientUnits="userSpaceOnUse">
            <stop stop-color="#00C78E" />
            <stop offset="1" stop-color="#00C78E" stop-opacity="0" />
        </linearGradient>
        <linearGradient id="paint2_linear_1625_25931" x1="290.662" y1="92.4998" x2="290.662" y2="477.5"
            gradientUnits="userSpaceOnUse">
            <stop stop-color="#A100FF" />
            <stop offset="1" stop-color="#5B0090" stop-opacity="0" />
        </linearGradient>
        <linearGradient id="paint3_linear_1625_25931" x1="175.007" y1="289.305" x2="175.007" y2="468.844"
            gradientUnits="userSpaceOnUse">
            <stop stop-color="#00C78E" />
            <stop offset="1" stop-color="#00C78E" stop-opacity="0" />
        </linearGradient>
    </defs>
</svg>