<svg width="67" height="52" viewBox="0 0 67 52" fill="none" xmlns="http://www.w3.org/2000/svg">
<path d="M42.0579 46.6955L42.0952 46.7583L42.2832 47.0681L42.478 47.3751L42.8768 47.9893H45.1304C45.958 47.9893 46.6808 48.3927 47.0674 48.9923L47.0799 49.0123C47.0948 49.0357 47.1091 49.0595 47.1227 49.0835C47.1259 49.0895 47.1293 49.0955 47.1327 49.1016C47.1482 49.1291 47.1626 49.1567 47.1764 49.1847C47.1787 49.1897 47.1811 49.1946 47.1835 49.1995C47.2145 49.2635 47.2418 49.3294 47.2653 49.3969C47.2683 49.406 47.2714 49.4152 47.2745 49.4243C47.2966 49.491 47.3149 49.5592 47.3292 49.6286C47.3312 49.6391 47.3333 49.6495 47.3353 49.66C47.3404 49.6873 47.3449 49.7148 47.3488 49.7424C47.3498 49.7496 47.3508 49.7569 47.3517 49.7642C47.3551 49.7907 47.3579 49.8175 47.3601 49.8443L47.3635 49.9004L47.3634 49.8907C47.3636 49.8947 47.3638 49.8988 47.364 49.9028L47.3644 49.9168L47.3635 49.9027L47.3653 49.9679L47.3658 49.9848L47.3663 49.9946C47.3663 50.5175 47.1432 50.9936 46.7778 51.3505C46.3904 51.7288 45.8435 51.9733 45.2328 51.9979L45.1304 52H21.4111C21.3425 52 21.2747 51.9972 21.2077 51.9918L21.1077 51.9817C20.7918 51.9432 20.4969 51.8456 20.2373 51.7017C20.1125 51.6325 19.996 51.5527 19.8893 51.4638C19.8456 51.4274 19.8033 51.3891 19.7627 51.3495C19.6683 51.2571 19.5836 51.157 19.5098 51.0503C19.3189 50.7744 19.2006 50.4538 19.1789 50.11L19.1752 49.9946C19.1752 49.9557 19.1765 49.917 19.1789 49.8786C19.1797 49.8673 19.1805 49.8558 19.1814 49.8444C19.1837 49.8174 19.1865 49.7906 19.1899 49.764C19.1908 49.757 19.1918 49.75 19.1927 49.743C19.1965 49.7155 19.201 49.6881 19.2061 49.661C19.2081 49.6503 19.2102 49.6395 19.2125 49.6288C19.2269 49.5579 19.2456 49.4885 19.2682 49.4205C19.2701 49.4155 19.2719 49.4102 19.2737 49.4049C19.31 49.2986 19.3558 49.1963 19.4104 49.0985L19.4295 49.0656L19.4401 49.0474L19.4416 49.0448L19.4612 49.0123L19.4419 49.0447L19.4681 49.0018L19.4713 48.9968L19.5225 48.9209C19.919 48.3609 20.6166 47.9893 21.4111 47.9893H23.6647L24.0635 47.3751C24.1791 47.1969 24.2913 47.0173 24.3999 46.8361C25.0333 45.7802 25.5483 44.674 25.9415 43.5344L26.0457 43.2228C26.4755 41.9035 26.7393 40.5416 26.8315 39.1615L26.8478 38.8813H39.6938C39.7673 40.3572 40.0373 41.8143 40.4935 43.2228C40.8592 44.3461 41.3407 45.4386 41.9362 46.4848C41.9491 46.5079 41.9623 46.531 41.9756 46.554L41.9718 46.5468L42.0012 46.5975L41.9756 46.554L42.015 46.6218L42.0579 46.6955ZM63.8128 0C65.3197 0 66.5411 1.09547 66.5411 2.44706V36.4338C66.5411 37.7854 65.3197 38.8809 63.8132 38.8809H2.72834C1.22139 38.8809 0 37.7854 0 36.4338V2.44706C0 1.09547 1.22139 0 2.72834 0H63.8128Z" fill="url(#paint0_linear_24_367)"/>
<path d="M63.3288 36.4913H3.21233C2.70524 36.4913 2.29453 36.0539 2.29453 35.5138V3.25821C2.29453 2.71817 2.70524 2.28076 3.21233 2.28076H63.3288C63.8354 2.28076 64.2466 2.71817 64.2466 3.25821V35.5138C64.2466 36.0534 63.8354 36.4913 63.3288 36.4913Z" fill="white"/>
<path d="M62.4328 6.38599H4.56718C4.3258 6.38599 4.13013 6.58048 4.13013 6.82041C4.13013 7.06033 4.3258 7.25483 4.56718 7.25483H62.4328C62.6742 7.25483 62.8699 7.06033 62.8699 6.82041C62.8699 6.58048 62.6742 6.38599 62.4328 6.38599Z" fill="#C6C6C6"/>
<path d="M62.4328 31.9299H4.56718C4.3258 31.9299 4.13013 32.1244 4.13013 32.3643C4.13013 32.6043 4.3258 32.7988 4.56718 32.7988H62.4328C62.6742 32.7988 62.8699 32.6043 62.8699 32.3643C62.8699 32.1244 62.6742 31.9299 62.4328 31.9299Z" fill="#C6C6C6"/>
<path d="M7.54071 16.1285C7.43349 16.1359 7.33121 16.1943 7.2694 16.2955C7.16576 16.465 7.21472 16.6906 7.37864 16.7994L10.406 18.8084C10.5494 18.9036 10.7371 18.8791 10.852 18.7503L12.7322 16.6418L15.3781 18.9863C15.5262 19.1175 15.7477 19.0999 15.873 18.947C15.9982 18.7941 15.9797 18.5639 15.8317 18.4328L12.9287 15.8605C12.7849 15.7332 12.571 15.7456 12.4436 15.8884L10.5336 18.0303L7.75369 16.1855C7.68768 16.1418 7.61306 16.1235 7.54071 16.1285Z" fill="#C6C6C6"/>
<path d="M9.9258 18.5015C9.84619 18.1545 10.0521 17.8081 10.3857 17.7278C10.7193 17.6475 11.0543 17.8638 11.134 18.2108C11.2136 18.5579 11.0077 18.9043 10.674 18.9846C10.3404 19.0648 10.0054 18.8486 9.9258 18.5015Z" fill="#08538C"/>
<path d="M12.7529 16.9364C12.4108 16.96 12.1131 16.6911 12.0879 16.3357C12.0628 15.9802 12.3198 15.6729 12.6619 15.6493C13.004 15.6256 13.3017 15.8946 13.3268 16.25C13.3519 16.6054 13.095 16.9127 12.7529 16.9364Z" fill="#08538C"/>
<path d="M15.5419 19.2269C15.1998 19.2506 14.9021 18.9816 14.877 18.6262C14.8518 18.2708 15.1088 17.9635 15.4509 17.9398C15.793 17.9161 16.0907 18.1851 16.1158 18.5405C16.141 18.8959 15.884 19.2033 15.5419 19.2269Z" fill="#08538C"/>
<path d="M15.9709 24.6658H6.97385C6.62837 24.6658 6.3479 24.3661 6.3479 23.9959C6.3479 23.6261 6.62794 23.3259 6.97385 23.3259H15.9709C16.3164 23.3259 16.5969 23.6256 16.5969 23.9959C16.5969 24.3661 16.3164 24.6658 15.9709 24.6658Z" fill="#C6C6C6"/>
<path d="M15.9709 27.0918H6.97385C6.62837 27.0918 6.3479 26.7921 6.3479 26.4219C6.3479 26.0521 6.62794 25.752 6.97385 25.752H15.9709C16.3164 25.752 16.5969 26.0517 16.5969 26.4219C16.5969 26.7921 16.3164 27.0918 15.9709 27.0918Z" fill="#C6C6C6"/>
<path d="M15.3309 21.6631H7.46686C7.27299 21.6631 7.11578 21.4962 7.11578 21.2903V12.9558C7.11578 12.7611 7.24982 12.5871 7.43231 12.5686C7.64176 12.5475 7.81793 12.7218 7.81793 12.9397V20.7684C7.81793 20.8508 7.88077 20.9175 7.95836 20.9175H15.3158C15.4992 20.9175 15.6629 21.0599 15.6804 21.2537C15.7003 21.4761 15.5362 21.6631 15.3309 21.6631Z" fill="url(#paint1_linear_24_367)"/>
<path d="M51.4547 19.4487C51.34 19.4487 51.2268 19.3964 51.1534 19.2976C51.0303 19.132 51.0654 18.8986 51.2317 18.7762L54.3024 16.5146C54.4478 16.4074 54.6494 16.4191 54.7814 16.5424L56.9411 18.5593L59.5806 15.9827C59.7283 15.8385 59.9653 15.8407 60.1102 15.9878C60.2549 16.1348 60.2526 16.3708 60.105 16.5149L57.209 19.342C57.0655 19.4819 56.8369 19.4844 56.6906 19.3477L54.4968 17.2989L51.677 19.3755C51.6101 19.4248 51.532 19.4487 51.4547 19.4487Z" fill="#C6C6C6"/>
<path d="M55.1229 17.0721C55.1817 16.7125 54.9364 16.3738 54.5752 16.3155C54.214 16.2573 53.8736 16.5015 53.8149 16.8611C53.7562 17.2207 54.0014 17.5594 54.3626 17.6177C54.7238 17.676 55.0642 17.4317 55.1229 17.0721Z" fill="#08538C"/>
<path d="M56.9402 19.5771C57.3061 19.5771 57.6028 19.2817 57.6028 18.9174C57.6028 18.5531 57.3061 18.2578 56.9402 18.2578C56.5742 18.2578 56.2776 18.5531 56.2776 18.9174C56.2776 19.2817 56.5742 19.5771 56.9402 19.5771Z" fill="#08538C"/>
<path d="M59.7364 17.0422C60.1023 17.0422 60.399 16.7468 60.399 16.3825C60.399 16.0182 60.1023 15.7229 59.7364 15.7229C59.3704 15.7229 59.0738 16.0182 59.0738 16.3825C59.0738 16.7468 59.3704 17.0422 59.7364 17.0422Z" fill="#08538C"/>
<path d="M60.3256 24.6658H50.7287C50.3602 24.6658 50.0611 24.3661 50.0611 23.9959C50.0611 23.6261 50.3598 23.3259 50.7287 23.3259H60.3256C60.6941 23.3259 60.9933 23.6256 60.9933 23.9959C60.9933 24.3661 60.6941 24.6658 60.3256 24.6658Z" fill="#C6C6C6"/>
<path d="M60.3256 27.0918H50.7287C50.3602 27.0918 50.0611 26.7921 50.0611 26.4219C50.0611 26.0521 50.3598 25.752 50.7287 25.752H60.3256C60.6941 25.752 60.9933 26.0517 60.9933 26.4219C60.9933 26.7921 60.6941 27.0918 60.3256 27.0918Z" fill="#C6C6C6"/>
<path d="M59.643 21.6631H51.2546C51.0478 21.6631 50.8802 21.4962 50.8802 21.2903V12.9558C50.8802 12.7611 51.0231 12.5871 51.2178 12.5686C51.4412 12.5475 51.6291 12.7218 51.6291 12.9397V20.7684C51.6291 20.8508 51.6961 20.9175 51.7789 20.9175H59.6269C59.8224 20.9175 59.9971 21.0599 60.0157 21.2537C60.037 21.4761 59.8619 21.6631 59.643 21.6631Z" fill="url(#paint2_linear_24_367)"/>
<path d="M33.5 6.38599C26.1498 6.38599 20.1918 12.3086 20.1918 19.6151C20.1918 26.9195 26.1498 32.8421 33.5 32.8421C36.4821 32.8421 39.2335 31.8676 41.4516 30.2237C41.7378 30.0108 42.0138 29.7877 42.2815 29.5543C42.9817 28.9422 43.614 28.2625 44.1721 27.5194V27.5173C45.8279 25.3125 46.8082 22.5774 46.8082 19.6151C46.8082 12.3088 40.8502 6.38599 33.5 6.38599Z" fill="url(#paint3_linear_24_367)"/>
<path d="M34.5688 20.8696C34.7475 20.8696 34.8895 21.0121 34.8895 21.1863V29.5945C34.3535 29.6963 33.8059 29.7619 33.2447 29.7822C33.0912 29.7913 32.9377 29.7936 32.7819 29.7936C32.3833 29.7936 31.9869 29.7732 31.5998 29.7325V21.1863C31.5998 21.0121 31.7441 20.8696 31.9205 20.8696H34.5688ZM41.1483 13.8481C41.327 13.8481 41.4691 13.9906 41.4691 14.1648V25.5906C41.2927 25.8145 41.1071 26.0317 40.9147 26.2421C40.5756 26.6085 40.2114 26.9546 39.8242 27.2736C39.3133 27.6943 38.7635 28.0721 38.1793 28.3956V14.1648C38.1793 13.9906 38.3236 13.8481 38.5 13.8481H41.1483ZM34.1626 12.772C34.4655 12.7708 34.7015 13.031 34.6669 13.3282L34.282 16.6266C34.2318 17.0541 33.6939 17.2231 33.4032 16.9023L32.8034 16.2405L27.2521 21.1476C26.9636 21.4025 26.5203 21.3783 26.2619 21.0935L25.4184 20.1631C25.1602 19.8783 25.1847 19.4406 25.4731 19.1855L31.0247 14.2786L30.4254 13.6176C30.1347 13.2968 30.364 12.7874 30.8 12.7856L34.1626 12.772Z" fill="#C6C6C6"/>
<path d="M38.1794 17.6756V28.3956C37.657 28.6897 37.1072 28.9408 36.5345 29.1444C36.003 29.3344 35.4554 29.486 34.8896 29.5946V17.6756C34.8896 17.5014 35.0339 17.3589 35.2103 17.3589H37.8586C38.0373 17.3589 38.1794 17.5014 38.1794 17.6756Z" fill="white"/>
<path d="M31.5998 24.697V29.7324C31.0385 29.6713 30.4887 29.5718 29.9549 29.4293C29.3867 29.2823 28.8369 29.09 28.31 28.857V24.697C28.31 24.5228 28.4543 24.3826 28.6307 24.3826H31.279C31.4554 24.3826 31.5998 24.5228 31.5998 24.697Z" fill="white"/>
<path d="M31.5998 24.697V29.7324C31.0385 29.6713 30.4887 29.5718 29.9549 29.4293V24.3826H31.279C31.4554 24.3826 31.5998 24.5228 31.5998 24.697Z" fill="white"/>
<path d="M61.7226 5.47365C62.1028 5.47365 62.411 5.16731 62.411 4.78944C62.411 4.41156 62.1028 4.10522 61.7226 4.10522C61.3424 4.10522 61.0342 4.41156 61.0342 4.78944C61.0342 5.16731 61.3424 5.47365 61.7226 5.47365Z" fill="#C6C6C6"/>
<path d="M58.9692 5.47365C59.3493 5.47365 59.6575 5.16731 59.6575 4.78944C59.6575 4.41156 59.3493 4.10522 58.9692 4.10522C58.589 4.10522 58.2808 4.41156 58.2808 4.78944C58.2808 5.16731 58.589 5.47365 58.9692 5.47365Z" fill="#C6C6C6"/>
<path d="M56.2158 5.47365C56.5959 5.47365 56.9041 5.16731 56.9041 4.78944C56.9041 4.41156 56.5959 4.10522 56.2158 4.10522C55.8356 4.10522 55.5274 4.41156 55.5274 4.78944C55.5274 5.16731 55.8356 5.47365 56.2158 5.47365Z" fill="#C6C6C6"/>
<defs>
<linearGradient id="paint0_linear_24_367" x1="33.2705" y1="-75.9758" x2="33.2705" y2="52" gradientUnits="userSpaceOnUse">
<stop stop-color="#DE1A60"/>
<stop offset="0.50216" stop-color="#3B0065"/>
<stop offset="1" stop-color="#08538C"/>
</linearGradient>
<linearGradient id="paint1_linear_24_367" x1="11.3989" y1="3.87006" x2="11.3989" y2="19.4373" gradientUnits="userSpaceOnUse">
<stop stop-color="#3B0065"/>
<stop offset="1" stop-color="#08538C"/>
</linearGradient>
<linearGradient id="paint2_linear_24_367" x1="55.4488" y1="3.87006" x2="55.4488" y2="19.4373" gradientUnits="userSpaceOnUse">
<stop stop-color="#3B0065"/>
<stop offset="1" stop-color="#08538C"/>
</linearGradient>
<linearGradient id="paint3_linear_24_367" x1="33.5" y1="-32.2683" x2="33.5" y2="32.8421" gradientUnits="userSpaceOnUse">
<stop stop-color="#DE1A60"/>
<stop offset="0.50216" stop-color="#3B0065"/>
<stop offset="1" stop-color="#08538C"/>
</linearGradient>
</defs>
</svg>
