<svg width="22" height="17" viewBox="0 0 22 17" fill="none" xmlns="http://www.w3.org/2000/svg">
<path d="M16.8781 7.55186H22V3.94227C22 3.52642 22 2.81115 21.2609 2.77789V1.86301C21.2609 0.831703 20.4016 0 19.3359 0H1.925C0.859375 0 0 0.831703 0 1.86301V15.8356C0 16.2515 0 17 1.2375 17H20.7625C22 17 22 16.2515 22 15.8356V11.8102H16.8781C16.2766 11.8102 15.7266 11.5773 15.3312 11.1947C14.9359 10.8121 14.6953 10.2632 14.6953 9.69765C14.6953 8.51663 15.675 7.55186 16.8781 7.55186ZM1.40937 2.76125V1.84638C1.40937 1.5636 1.65 1.33072 1.94219 1.33072H19.3359C19.6281 1.33072 19.8687 1.5636 19.8687 1.84638V2.76125H1.40937ZM15.5891 9.68102C15.5891 8.93249 16.225 8.31703 16.9984 8.31703C17.7719 8.31703 18.4078 8.93249 18.4078 9.68102C18.4078 10.4296 17.7719 11.045 16.9984 11.045C16.225 11.045 15.5891 10.4462 15.5891 9.68102Z" fill="url(#paint0_linear_4_8734)"/>
<defs>
<linearGradient id="paint0_linear_4_8734" x1="22" y1="3.52824" x2="0.0253759" y2="3.52824" gradientUnits="userSpaceOnUse">
<stop stop-color="#3B0065"/>
<stop offset="1" stop-color="#08538C"/>
</linearGradient>
</defs>
</svg>
