<?xml version="1.0" encoding="UTF-8"?>
<svg width="4124px" height="4124px" viewBox="0 0 4124 4124" version="1.1" xmlns="http://www.w3.org/2000/svg" xmlns:xlink="http://www.w3.org/1999/xlink">
    <title>CM_Coin_SeeThru</title>
    <g id="CM_Coin_SeeThru" stroke="none" stroke-width="1" fill="none" fill-rule="evenodd">
        <g id="CM_Coin" transform="translate(0.000000, 1.000000)" fill="#DE1A60" fill-rule="nonzero">
            <g id="Group" transform="translate(2061.400000, 2061.490569) scale(-1, 1) rotate(-180.000000) translate(-2061.400000, -2061.490569) translate(0.000000, 0.000000)">
                <path d="M2009.9,4122.8 C1758.9,4115.3 1528.3,4068.4 1301.9,3978.9 C950.9,3840.1 641,3603.4 412.8,3299.9 C171.2,2978.7 30.2,2598.2 3.9,2197.4 C0.7,2147.5 0,2124 0,2061.4 C0,1998.8 0.7,1975.3 3.9,1925.4 C36,1436 239.5,978.3 582.1,625.1 C774.8,426.5 1007.2,267.5 1260.9,160.6 C1472.1,71.7 1695.6,19 1925.4,3.9 C1975.3,0.7 1998.8,0 2061.4,0 C2124,0 2147.5,0.7 2197.4,3.9 C2409.1,17.8 2615.5,63.6 2811.9,140.4 C3167.3,279.2 3479.7,516.7 3710,822.9 C3883.4,1053.5 4006.3,1317 4070.4,1595.4 C4098.9,1718.9 4114.6,1835.3 4121.6,1972.4 C4123.2,2004.5 4123.2,2118.3 4121.6,2150.4 C4117.5,2230.5 4111.5,2293.9 4101.4,2363.2 C4038.9,2789.8 3842.5,3187.3 3540.7,3497.6 C3262.9,3783.3 2911.9,3981.7 2527.4,4070.4 C2405,4098.6 2286.2,4114.8 2152.4,4121.4 C2131.9,4122.4 2030.7,4123.4 2009.9,4122.8 Z M2081.9,3562.4 C2327.8,3552.6 2558.2,3487.4 2767.9,3368.1 C2809.8,3344.3 2845.4,3321.7 2852.2,3314.7 C2862,3304.6 2865.9,3293.6 2865.2,3278 C2864.3,3258.9 2860.4,3252.7 2837.4,3234.3 C2740.4,3156.4 2650.4,3063.1 2575.6,2962.9 C2525,2895.2 2484.7,2830.9 2443.5,2752.2 C2435.8,2737.5 2431.4,2732.5 2422.4,2727.9 C2413.8,2723.5 2407,2722.2 2395.9,2722.6 L2385.7,2722.9 L2359.8,2735.6 C2317.7,2756.2 2287,2768.5 2247.4,2780.5 C2041.8,2843.1 1819.6,2815.3 1637.6,2704.2 C1491.6,2615 1381,2480 1322.2,2319 C1262.4,2155.1 1262.4,1967.7 1322.2,1803.8 C1334.5,1770.3 1343.6,1749.4 1360.6,1716.2 C1427.1,1586.2 1533,1476.7 1661.7,1404.5 C1856.1,1295.5 2091.9,1279.4 2300.4,1360.7 C2320.7,1368.6 2333.3,1374.2 2359.8,1387.2 L2385.7,1399.9 L2395.9,1400.2 C2407,1400.6 2413.8,1399.3 2422.4,1394.9 C2431.4,1390.3 2435.8,1385.3 2443.5,1370.6 C2484.7,1291.9 2525,1227.6 2575.6,1159.9 C2650.4,1059.7 2740.4,966.4 2837.4,888.5 C2854.7,874.6 2858.8,870.1 2862.5,860.6 C2865.6,852.7 2866.3,837 2863.9,828.8 C2859.5,813.7 2853,806.5 2831.9,793.1 C2742.1,736.5 2652.7,691.8 2556.9,655.6 C2323.9,567.7 2070.5,539.4 1821.9,573.5 C1619.8,601.2 1426.8,669.5 1251.9,775.3 C1115.9,857.5 993.5,961.2 888.9,1082.9 C775.1,1215.3 685.1,1366.9 623.6,1529.9 C559.8,1699.1 527.4,1877.9 527.4,2061.4 C527.4,2338.1 601.2,2604.1 743.3,2838.9 C825.5,2974.9 929.2,3097.3 1050.9,3201.9 C1183.3,3315.7 1334.9,3405.7 1497.9,3467.2 C1648.2,3523.9 1806.4,3555.8 1969.4,3562.3 C1998.5,3563.5 2053.6,3563.5 2081.9,3562.4 Z M3194.7,2800.2 C3255.3,2760.9 3310.7,2714.5 3359.8,2661.9 C3488.4,2524.4 3569.4,2348.5 3589.8,2162.4 C3594.3,2121.4 3594.9,2110.1 3594.9,2059.4 C3594.9,2008.7 3594.3,1997.4 3589.8,1956.4 C3579.9,1866.2 3555.3,1776.6 3517.8,1693.6 C3449.9,1543.9 3340.8,1415.7 3203.5,1324.5 C3178.3,1307.7 3180.1,1308.6 3176.2,1310.9 C3168.9,1315.1 3136.8,1336.8 3123.5,1346.5 C3081.3,1377.2 3035.8,1417.6 2999,1456.9 C2870.4,1594.5 2789.4,1770.3 2769,1956.4 C2764.5,1997.4 2763.9,2008.7 2763.9,2059.4 C2763.9,2110.1 2764.5,2121.4 2769,2162.4 C2786.8,2324.8 2850.9,2480 2953.3,2608.9 C3005.1,2674.2 3071.5,2736.6 3138.4,2783 C3157.1,2795.9 3177.8,2809.3 3179.2,2809.4 C3180,2809.4 3187,2805.3 3194.7,2800.2 Z" id="Shape"></path>
            </g>
        </g>
        <circle id="Oval" fill="#3B0065" cx="752.5" cy="3365.5" r="752.5"></circle>
        <text id="X" font-family="Credmark Regular, Arial" font-size="1280" font-weight="bold" letter-spacing="43.4900787" fill="#FFFFFF">
            <tspan x="289.149921" y="3818">X</tspan>
        </text>
    </g>
</svg>